<?xml version="1.0" encoding="UTF-8"?>
<svg viewBox="0 0 500 375" xmlns="http://www.w3.org/2000/svg" xmlns:xlink="http://www.w3.org/1999/xlink">
 <defs>
  <linearGradient id="h" x1=".39514" x2=".57727" y1="-.1469" y2=".66772" xlink:href="#a"/>
  <linearGradient id="g" x1=".35915" x2=".55282" y1=".81001" y2=".030005">
   <stop stop-color="#fff" offset="0"/>
   <stop stop-color="#fff" stop-opacity="0" offset="1"/>
  </linearGradient>
  <linearGradient id="f" x1=".30796" x2=".63202" y1=".079224" y2=".65508" xlink:href="#a"/>
  <linearGradient id="a">
   <stop stop-color="#d0f0ff" offset="0"/>
   <stop stop-color="#003968" offset="1"/>
  </linearGradient>
  <radialGradient id="i" cx="195.7" cy="252.7" r="158.86" gradientTransform="scale(1.2973 .77085)" gradientUnits="userSpaceOnUse">
   <stop stop-color="#00006d" offset="0"/>
   <stop stop-color="#1f4b72" stop-opacity=".837" offset=".5"/>
   <stop stop-color="#fff" stop-opacity="0" offset="1"/>
  </radialGradient>
 </defs>
 <g fill-rule="evenodd">
  <path d="m483.86 211.72a240.94 105.53 0 1 1 -481.87 0 240.94 105.53 0 1 1 481.87 0z" fill="url(#i)" stroke-linecap="round" stroke-linejoin="round" stroke-width="1.425"/>
  <g stroke="#000" stroke-width="1.553">
   <path d="m146.01 137.39s144.86-48.966 144.86-58.148c0-9.1812-4.0805-4.0805-5.1006-14.282 16.322-19.382 0-20.403-11.221-26.524-7.141 17.342-46.926 33.664-46.926 33.664l-90.792 49.986 9.1812 15.302z" fill="#fff"/>
   <path d="m375.92 59.859c-3.0604-6.1208-22.443-12.242-26.523-8.1611-4.0805 4.0805-23.983 15.065-30.104 19.146-6.1208 4.0805-8.424 11.222-16.822 10.438-6.1208-3.0604-24.483-12.242-25.503-6.1208-1.0201 6.1208-6.1208 41.825 21.423 41.825s57.127 10.201 65.288-6.1208 12.242-51.007 12.242-51.007z" fill="url(#h)"/>
   <path d="m395.94 152.69s1.0201-51.007-3.0604-60.188c-4.0805-9.1812-12.242-27.544-16.322-31.624-4.0805-4.0805-7.1409-5.1007-11.222 0-4.0805 5.1006-4.0805 23.463-9.1812 30.604-5.1007 7.1409-8.1611 12.242-18.362 13.262-10.201 1.0201-21.423-4.0805-30.604-12.242-9.1812-8.1611-15.302-18.362-22.443-20.403-7.1409-2.0403-8.1611 0-20.403 7.1409s-113.24 44.886-113.24 44.886l-10.201-1.0201 104.05-61.208s-83.651 44.886-98.953 53.047-23.463 16.322-31.624 17.342c-8.1611 1.0201-32.644-5.1007-39.785-1.0201-7.1409 4.0806-14.282 6.1208-17.342 14.282-3.0604 8.1611-6.1208 35.705-6.1208 35.705s12.242 16.322 27.544 20.403c15.302 4.0805 89.772 20.403 108.13 17.342 18.362-3.0604 47.946-3.0604 60.188-10.201 12.242-7.1409 34.684-8.1611 45.906-8.1611s61.208 4.0805 74.47-2.0403 21.423-29.584 25.503-33.664c4.0805-4.0806 3.0604-12.242 3.0604-12.242z" fill="#fff"/>
  </g>
  <path d="m393.38 144.75c2.2563-5.6407 2.2563 31.588 1.1281 33.844-117.33 22.563-186.14 7.8969-186.14 7.8969s86.866 7.8969 174.86-20.306c7.8969-6.7688 10.153-21.434 10.153-21.434z" fill-opacity=".227"/>
  <g stroke="#000">
   <path d="m397.98 158.4l3.0604 24.878s0 1.5549-1.0201 6.997c-1.0201 5.442-2.0402 8.5518-8.1611 10.884-6.1208 2.3323-63.248 10.884-66.309 10.884-3.0604 0-26.524-6.2195-38.765-4.6646-12.242 1.5549-20.403 3.1098-26.524 5.4421-6.1208 2.3323-19.382 9.3292-44.886 10.107-25.503 0.77742-53.047 2.3323-82.631-3.8872s-30.693-6.9402-54.984-16.894c-13.773-6.8798-24.525-12.398-32.791-21.06-0.26611-15.998 10.246-30.461 10.246-24.241 5.6452 16.099 11.354 14.417 30.087 23.079 14.882 5.442 38.262 18.902 57.645 16.57 19.382-2.3323 58.148-8.5518 66.309-8.5518 8.1611 0 76.51 4.6646 97.933 2.3323s68.349-10.107 78.55-13.994c10.201-3.8872 12.242-17.881 12.242-17.881z" fill="#171717" stroke-width="1.356"/>
   <path d="m141.93 118.01l22.015 13.499 6.0746-30.841 46.38 2.9419 3.0604-28.445 45.906 8.1611-10.201-16.322-19.382-1.0201 5.6931 26.168-45.196-6.1973-6.7121 29.779-47.637 2.2772z" fill="#fff" stroke-linecap="round" stroke-linejoin="round" stroke-width="6.25"/>
  </g>
  <path d="m136.44 127.57s-8.1611 4.0805-17.342 5.1007c-9.1812 1.0201-35.705-2.0403-35.705-2.0403s-11.222 0-1.0201 6.1208c10.201 6.1208 87.731 24.483 76.51 18.362-11.222-6.1208-39.785-9.1812-47.946-14.282-8.1611-5.1007 25.503-13.262 25.503-13.262z" fill="url(#g)"/>
  <path d="m373.31 65.736s-2.1722-8.1611-4.4424-2.0403-4.8261 21.423-9.4359 27.544c-3.1322 5.2226-19.143 23.617-6.1476 13.749 21.322-22.443 20.026-39.253 20.026-39.253z" fill="#fff" fill-opacity=".616"/>
  <path d="m233.74 103.73s-89.772 28.564-76.51 34.684c13.262 6.1208 76.51-34.684 76.51-34.684z" fill-opacity=".054"/>
  <g stroke="#000">
   <g fill="none" stroke-width="4.659">
    <g stroke-linecap="round" stroke-linejoin="round">
     <path d="m256.18 67c9.1812-3.0604 6.1208-3.0604 14.282-1.0201 8.161 2.0403 16.322 12.242 7.1409 13.262-9.1812 1.0201-16.322-3.0604-21.423-12.242z"/>
     <path d="m257.2 63.94s-4.0805-9.1812-11.222-8.1611c-7.1409 1.0201-17.342 8.1611-9.1812 5.1007 7.1409 5.1006 20.403 3.0604 20.403 3.0604z"/>
    </g>
    <path d="m247 89.443l9.1812-23.463s-19.382 10.201-25.503 15.302"/>
   </g>
   <path d="m323.4 122.87s-26.757-12.019-32.839-18.575c-6.0812-6.556-8.5137-10.927-12.162-10.927-3.6487 0-83.921 37.151-91.218 40.429-7.2975 3.278-34.055 6.556-17.028 8.7414 17.028 2.1853 70.542 0 88.786-4.3707s64.461-15.297 64.461-15.297z" fill="#fff" fill-opacity=".216" stroke-linejoin="round" stroke-width="1.541"/>
   <path d="m301.2 87.358s27.439 8.0048 40.437 2.6683c12.998-5.3366 28.883-25.349 34.66-28.017 5.7767-2.6683 17.5-6.805 27.609-0.13431s10.294-0.70086 13.182 13.975c2.8883 14.676 3.9775 40.859-7.5758 43.528-11.553 2.6683-108.31-32.019-108.31-32.019z" fill="url(#f)" stroke-width="1.425"/>
   <path d="m218.89 176.75l83.762-84.051s-7.2208-4.0024-4.3325-10.673c2.8883-6.6707 7.2209-20.012 21.662-18.678 14.442 1.3341 38.992-2.6683 40.437 6.6707 1.4442 9.339-1.4442 17.344 0 25.349 1.4442 8.0048-5.7767 2.6683-10.109 8.0048-4.3325 5.3366-115.53 97.392-115.53 97.392l-17.33-6.6707 1.4442-17.344z" fill="#fff" stroke-width=".921"/>
  </g>
  <path d="m385.1 66.392c5.0079-5.2226 14.704-4.4617 18.704-0.12532 7.0844 3.5298 19.914 10.255 10.688 28.306-3.2961 10.317-8.9729 23.109-12.437 13.851 1.0002 15.177-0.50241-35.252-16.956-42.032z" fill-opacity=".324"/>
  <g stroke="#000">
   <path d="m129.35 254.13s5.7767-28.017 14.442-32.019c8.665-4.0024 36.104-16.01 43.325-21.346 7.2208-5.3366 18.774-26.683 25.995-32.019 7.2208-5.3366 49.102-48.029 59.211-54.7 10.109-6.6707 18.774-33.354 24.551-32.019 5.7767 1.3341 11.553 6.6707 5.7767 16.01-5.7767 9.339-80.873 78.714-80.873 84.051 0 5.3366 2.8883 13.341 8.665 13.341s98.203-94.724 111.2-97.392c12.998-2.6683 30.328-5.3366 38.992-1.3341 8.665 4.0024 23.107 20.012 24.551 14.676 1.4442-5.3366 18.63-26.672 8.521-37.345-4.1215-8.9267-9.3048-10.67-16.526-13.338-7.2208-2.6683-5.3939-3.0767 9.4488 1.32 11.553 5.3366 20.218 1.3341 23.107 13.341 2.8883 12.007 10.109 13.341 12.998 33.354 2.8883 20.012 10.109 69.375 10.109 69.375l-67.876 49.363-8.665 8.0048-20.218 34.688s-25.995 24.014-54.878 25.349c-28.883 1.3342-79.429 0-92.427-4.0024s-59.211-13.341-67.876-20.012c-8.665-6.6707-11.553-17.344-11.553-17.344z" fill="#fff" stroke-width="1.675"/>
   <path d="m129.35 252.84s0 18.097 1.4442 24.129c1.4442 6.0324 4.3325 13.573 11.553 16.589 7.2208 3.0161 49.102 18.097 95.315 19.605 46.213 1.5081 64.988-1.5081 89.538-10.557 24.551-9.0485 28.883-13.573 31.772-21.113 2.8883-7.5404 5.7767-21.113-7.2208-21.113s-30.328 19.605-41.881 25.637c-11.553 6.0323-75.097 7.5404-75.097 7.5404s-5.7767-7.5404-10.109-13.573c-4.3325-6.0323-89.538-12.065-95.315-27.145z" stroke-width=".712"/>
  </g>
  <path d="m195.78 207.43s-24.551 6.6707-33.216 12.007c-8.665 5.3366-8.665 2.6683-7.2208 6.6707s24.551 16.01 67.876 6.6707c43.325-9.339 118.42-26.683 90.982-25.349-27.439 1.3342-75.097 14.676-85.206 13.341-10.109-1.3341-33.216-13.341-33.216-13.341z" fill="#bfbfbf"/>
  <path d="m360.42 264.8s1.4442-23.258 21.662-37.794 56.322-34.887 63.543-45.062c7.2208-10.175 7.2208-14.536 7.2208-14.536s5.7767 36.34 1.4442 46.516c-4.3325 10.175-59.211 33.433-66.432 33.433-7.2208 0-4.3325 0-11.553 2.9072-7.2208 2.9072-15.886 14.536-15.886 14.536z"/>
  <path d="m407.27 111.04s8.9872-10.586 9.8614-18.591c0.87415-8.0048 5.1014-11.038-1.8919-19.043-7.5621-7.5349-26.987-14.943-19.994-13.609 6.9932 1.3341 25.754 7.6284 28.376 15.633 2.6225 8.0048 0.25708 18.266-4.9878 26.27-5.2449 8.0048-7.8674 21.346-11.364 9.339z" fill="#bfbfbf"/>
  <g stroke="#000">
   <g stroke-linecap="round" stroke-linejoin="round">
    <g fill="#fff">
     <path d="m211.67 183.42l33.216 9.339-10.109-36.022 53.434-6.6707-10.109-34.688 59.211-9.339-20.218-16.01-25.995 8.0048 20.218 30.685-57.767 9.339 11.553 34.688-53.434 10.673z" stroke-width="7.088"/>
     <path d="m280.99 196.76l72.208-74.712s2.8883-5.3366 11.553-4.0024c8.665 1.3341 10.109 6.6707 18.774 9.339s25.995 8.0048 27.439 6.6707c1.4442-1.3341-43.325 37.356-60.655 45.361-17.33 8.0048-57.767 21.346-69.32 17.344z" fill-opacity=".259" stroke-width="1.675"/>
    </g>
    <path d="m315.85 87.293s-2.9369-7.3422-13.216-8.8107c-10.279-1.4684-26.432 11.748-16.153 10.279 10.279-1.4684 41.116-8.8107 51.396-5.8738 10.279 2.9369 29.369 19.09 14.684 19.09-14.684 0-36.711-14.684-36.711-14.684z" fill="none" stroke-width="7.088"/>
   </g>
   <path d="m292.35 107.85s13.216-13.216 20.558-19.09c7.3422-5.8738 1.4684 19.09 5.8738 33.774s1.4684 13.216 1.4684 13.216" fill="none" stroke-width="7.088"/>
  </g>
 </g>
</svg>
